<?xml version="1.0" encoding="utf-8"?>
<!-- Generator: Adobe Illustrator 24.0.0, SVG Export Plug-In . SVG Version: 6.00 Build 0)  -->
<svg version="1.1" id="Layer_1" xmlns="http://www.w3.org/2000/svg" xmlns:xlink="http://www.w3.org/1999/xlink" x="0px" y="0px"
	 viewBox="0 0 369 105" style="enable-background:new 0 0 369 105;" xml:space="preserve">
<style type="text/css">
	.st0{font-family:'Arial-BoldMT';}
	.st1{font-size:61.7229px;}
</style>
<g transform="matrix(0.121506,0,0,0.144999,-5.34984,-166.028)">
	<g transform="matrix(1,0,0,1,-68.4542,687.779)">
		<path d="M1691.5,636.6c-652.1,68-885.1,306.7-1523.9,384.5v-4.7c665.7-116.2,868.2-372.3,1523.9-493.1V636.6z"/>
	</g>
	<g transform="matrix(1,0,0,1,-68.4542,687.779)">
		<path d="M1691.5,848.9c-586.9,13.9-937.1,167.2-1523.9,181.1v-4.7c621.2-36.7,896.6-262.9,1523.9-289.6V848.9z"/>
	</g>
	<g transform="matrix(1,0,0,1,-68.4542,687.779)">
		<path d="M1691.5,1061.2c-522.7-57.4-1001.3,34.9-1523.9-22.4v-4.7c560.1,21.6,963.9-107.7,1523.9-86.1V1061.2z"/>
	</g>
</g>
<g transform="matrix(0.0584435,0,0,0.0697436,-9.31948,-19.004)">
	<text transform="matrix(17.1104 0 0 14.3382 3911.5994 1292.9833)" class="st0 st1">Fluid</text>
</g>
</svg>
