<?xml version="1.0" encoding="utf-8"?>
<!-- Generator: Adobe Illustrator 24.0.0, SVG Export Plug-In . SVG Version: 6.00 Build 0)  -->
<svg version="1.1" id="Calque_1" xmlns="http://www.w3.org/2000/svg" xmlns:xlink="http://www.w3.org/1999/xlink" x="0px" y="0px"
	 viewBox="0 0 32 16" style="enable-background:new 0 0 32 16;" xml:space="preserve">
<g transform="matrix(0.121506,0,0,0.144999,-5.34984,-166.028)">
	<g transform="matrix(1,0,0,1,-68.4542,687.779)">
		<path d="M371.7,486.4c-109.2,11.4-148.2,51.3-255.1,64.4v-0.8C228,530.5,262,487.6,371.7,467.4V486.4z"/>
	</g>
	<g transform="matrix(1,0,0,1,-68.4542,687.779)">
		<path d="M371.7,521.9c-98.3,2.3-156.9,28-255.1,30.3v-0.8c104-6.1,150.1-44,255.1-48.5V521.9z"/>
	</g>
	<g transform="matrix(1,0,0,1,-68.4542,687.779)">
		<path d="M371.7,557.4c-87.5-9.6-167.6,5.9-255.1-3.8v-0.8c93.8,3.6,161.4-18,255.1-14.4V557.4z"/>
	</g>
</g>
</svg>
