<?xml version="1.0" encoding="utf-8"?>
<!-- Generator: Adobe Illustrator 24.0.0, SVG Export Plug-In . SVG Version: 6.00 Build 0)  -->
<svg version="1.1" id="Calque_1" xmlns="http://www.w3.org/2000/svg" xmlns:xlink="http://www.w3.org/1999/xlink" x="0px" y="0px"
	 viewBox="0 0 58 16" style="enable-background:new 0 0 58 16;" xml:space="preserve">
<style type="text/css">
	.st0{font-family:'Arial-BoldMT';}
	.st1{font-size:10px;}
</style>
<g transform="matrix(0.121506,0,0,0.144999,-5.34984,-166.028)">
	<g transform="matrix(1,0,0,1,-68.4542,687.779)">
		<path d="M361,487.9c-105.6,11-143.4,49.7-246.9,62.3v-0.8C222,530.6,254.8,489.1,361,469.5V487.9z"/>
	</g>
	<g transform="matrix(1,0,0,1,-68.4542,687.779)">
		<path d="M361,522.2c-95.1,2.3-151.8,27.1-246.9,29.3v-0.8c100.6-5.9,145.3-42.6,246.9-46.9V522.2z"/>
	</g>
	<g transform="matrix(1,0,0,1,-68.4542,687.779)">
		<path d="M361,556.7c-84.7-9.3-162.2,5.7-246.9-3.6v-0.8c90.7,3.5,156.2-17.4,246.9-14V556.7z"/>
	</g>
</g>
<g transform="matrix(0.0584435,0,0,0.0697436,-9.31948,-19.004)">
	<text transform="matrix(17.1104 0 0 14.3382 752.2231 441.0435)" class="st0 st1">Fluid</text>
</g>
</svg>
